<svg xmlns="http://www.w3.org/2000/svg" viewBox="0 0 960 1080" font-family="'Inter','SF Pro Display','Noto Sans TC','PingFang TC',system-ui,sans-serif">
  <defs>
    <filter id="ds" x="-1%" y="-1%" width="102%" height="104%">
      <feGaussianBlur in="SourceAlpha" stdDeviation="2"/>
      <feOffset dy="1"/>
      <feComposite in2="SourceAlpha" operator="out"/>
      <feColorMatrix values="0 0 0 0 0 0 0 0 0 0 0 0 0 0 0 0 0 0 0.07 0"/>
      <feMerge><feMergeNode/><feMergeNode in="SourceGraphic"/></feMerge>
    </filter>
    <marker id="a" markerWidth="8" markerHeight="6" refX="8" refY="3" orient="auto"><path d="M0,0.5 L7,3 L0,5.5" fill="#5b7a9d"/></marker>
    <marker id="aR" markerWidth="8" markerHeight="6" refX="8" refY="3" orient="auto"><path d="M0,0.5 L7,3 L0,5.5" fill="#c0392b"/></marker>
  </defs>

  <!-- Background -->
  <rect width="960" height="1080" fill="#f5f5f5"/>

  <!-- Title -->
  <text x="480" y="32" text-anchor="middle" font-size="18" font-weight="700" fill="#2c3e50" letter-spacing="0.5">BitoGuard System Architecture</text>
  <text x="480" y="50" text-anchor="middle" font-size="10" fill="#7f8c8d">GNN + Stacking Ensemble Hybrid Risk Detection Pipeline</text>

  <!-- ================================================================ -->
  <!-- ROW 1: DATA LAYER -->
  <!-- ================================================================ -->
  <rect x="30" y="68" width="900" height="108" rx="4" fill="#fff" stroke="#bdc3c7" stroke-width="1"/>
  <!-- Left label -->
  <rect x="30" y="68" width="72" height="108" rx="4" fill="#2980b9"/>
  <rect x="98" y="68" width="4" height="108" fill="#2980b9"/>
  <text x="66" y="118" text-anchor="middle" font-size="13" font-weight="700" fill="#fff" letter-spacing="1">Data</text>
  <text x="66" y="134" text-anchor="middle" font-size="10" fill="#d5e8f7">Layer</text>

  <!-- Data table cards -->
  <g text-anchor="middle" font-size="9">
    <rect x="118" y="82" width="148" height="48" rx="3" fill="#d6eaf8" stroke="#85c1e9" stroke-width="0.8"/>
    <text x="192" y="102" font-weight="600" fill="#1a5276" font-size="10.5">user_info</text>
    <text x="192" y="118" fill="#5b7a9d">63,770 records</text>

    <rect x="278" y="82" width="148" height="48" rx="3" fill="#d6eaf8" stroke="#85c1e9" stroke-width="0.8"/>
    <text x="352" y="102" font-weight="600" fill="#1a5276" font-size="10.5">twd_transfer</text>
    <text x="352" y="118" fill="#5b7a9d">195,601 records</text>

    <rect x="438" y="82" width="148" height="48" rx="3" fill="#d6eaf8" stroke="#85c1e9" stroke-width="0.8"/>
    <text x="512" y="102" font-weight="600" fill="#1a5276" font-size="10.5">crypto_transfer</text>
    <text x="512" y="118" fill="#5b7a9d">239,958 records</text>

    <rect x="598" y="82" width="148" height="48" rx="3" fill="#d6eaf8" stroke="#85c1e9" stroke-width="0.8"/>
    <text x="672" y="102" font-weight="600" fill="#1a5276" font-size="10.5">usdt_twd_trading</text>
    <text x="672" y="118" fill="#5b7a9d">217,634 records</text>

    <rect x="758" y="82" width="148" height="48" rx="3" fill="#d6eaf8" stroke="#85c1e9" stroke-width="0.8"/>
    <text x="832" y="102" font-weight="600" fill="#1a5276" font-size="10.5">usdt_swap</text>
    <text x="832" y="118" fill="#5b7a9d">53,841 records</text>
  </g>
  <!-- Summary bar -->
  <rect x="118" y="140" width="788" height="22" rx="3" fill="#eaf2f8" stroke="#85c1e9" stroke-width="0.5"/>
  <text x="512" y="155" text-anchor="middle" font-size="9" fill="#2471a3" font-weight="500">Total: 770,804 records  |  5 transaction tables + user info  |  Label ratio 3.3% positive</text>

  <!-- Arrow -->
  <line x1="480" y1="176" x2="480" y2="198" stroke="#5b7a9d" stroke-width="1.4" marker-end="url(#a)"/>

  <!-- ================================================================ -->
  <!-- ROW 2: FEATURE ENGINEERING -->
  <!-- ================================================================ -->
  <rect x="30" y="204" width="900" height="136" rx="4" fill="#fff" stroke="#bdc3c7" stroke-width="1"/>
  <rect x="30" y="204" width="72" height="136" rx="4" fill="#8e44ad"/>
  <rect x="98" y="204" width="4" height="136" fill="#8e44ad"/>
  <text x="66" y="260" text-anchor="middle" font-size="12" font-weight="700" fill="#fff" letter-spacing="0.5">Feature</text>
  <text x="66" y="276" text-anchor="middle" font-size="10" fill="#e8d5f5">Engineering</text>

  <g text-anchor="middle" font-size="8.5">
    <!-- Row 1 -->
    <rect x="118" y="218" width="128" height="32" rx="3" fill="#f4ecf7" stroke="#d2b4de" stroke-width="0.6"/>
    <text x="182" y="232" fill="#6c3483" font-weight="600">User Profile</text>
    <text x="182" y="244" fill="#a569bd" font-size="7.5">15 features</text>

    <rect x="256" y="218" width="128" height="32" rx="3" fill="#f4ecf7" stroke="#d2b4de" stroke-width="0.6"/>
    <text x="320" y="232" fill="#6c3483" font-weight="600">Fiat Behavior</text>
    <text x="320" y="244" fill="#a569bd" font-size="7.5">14 features</text>

    <rect x="394" y="218" width="128" height="32" rx="3" fill="#f4ecf7" stroke="#d2b4de" stroke-width="0.6"/>
    <text x="458" y="232" fill="#6c3483" font-weight="600">Crypto Behavior</text>
    <text x="458" y="244" fill="#a569bd" font-size="7.5">15 features</text>

    <rect x="532" y="218" width="128" height="32" rx="3" fill="#f4ecf7" stroke="#d2b4de" stroke-width="0.6"/>
    <text x="596" y="232" fill="#6c3483" font-weight="600">Trading Patterns</text>
    <text x="596" y="244" fill="#a569bd" font-size="7.5">9 features</text>

    <rect x="670" y="218" width="128" height="32" rx="3" fill="#f4ecf7" stroke="#d2b4de" stroke-width="0.6"/>
    <text x="734" y="232" fill="#6c3483" font-weight="600">IP &amp; Velocity</text>
    <text x="734" y="244" fill="#a569bd" font-size="7.5">5 features</text>

    <rect x="808" y="218" width="98" height="32" rx="3" fill="#f4ecf7" stroke="#d2b4de" stroke-width="0.6"/>
    <text x="857" y="232" fill="#6c3483" font-weight="600">Graph Topo.</text>
    <text x="857" y="244" fill="#a569bd" font-size="7.5">5 features</text>

    <!-- Row 2 -->
    <rect x="118" y="260" width="128" height="32" rx="3" fill="#f4ecf7" stroke="#d2b4de" stroke-width="0.6"/>
    <text x="182" y="274" fill="#6c3483" font-weight="600">Cross-table</text>
    <text x="182" y="286" fill="#a569bd" font-size="7.5">4 features</text>

    <rect x="256" y="260" width="128" height="32" rx="3" fill="#f4ecf7" stroke="#d2b4de" stroke-width="0.6"/>
    <text x="320" y="274" fill="#6c3483" font-weight="600">AML Red Flags</text>
    <text x="320" y="286" fill="#a569bd" font-size="7.5">6 features</text>

    <rect x="394" y="260" width="128" height="32" rx="3" fill="#f4ecf7" stroke="#d2b4de" stroke-width="0.6"/>
    <text x="458" y="274" fill="#6c3483" font-weight="600">Temporal Patterns</text>
    <text x="458" y="286" fill="#a569bd" font-size="7.5">7 features</text>

    <rect x="532" y="260" width="128" height="32" rx="3" fill="#f4ecf7" stroke="#d2b4de" stroke-width="0.6"/>
    <text x="596" y="274" fill="#6c3483" font-weight="600">Composite Risk</text>
    <text x="596" y="286" fill="#a569bd" font-size="7.5">1 feature</text>
  </g>

  <rect x="118" y="302" width="788" height="24" rx="3" fill="#f9f0fc" stroke="#d2b4de" stroke-width="0.5"/>
  <text x="512" y="318" text-anchor="middle" font-size="9" fill="#7d3c98" font-weight="500">Output: 81 dimensional feature vector per user  |  10 feature categories</text>

  <!-- Arrow -->
  <line x1="480" y1="340" x2="480" y2="362" stroke="#5b7a9d" stroke-width="1.4" marker-end="url(#a)"/>

  <!-- ================================================================ -->
  <!-- ROW 3: FEATURE SELECTION -->
  <!-- ================================================================ -->
  <rect x="30" y="368" width="900" height="76" rx="4" fill="#fff" stroke="#bdc3c7" stroke-width="1"/>
  <rect x="30" y="368" width="72" height="76" rx="4" fill="#d68910"/>
  <rect x="98" y="368" width="4" height="76" fill="#d68910"/>
  <text x="66" y="400" text-anchor="middle" font-size="12" font-weight="700" fill="#fff" letter-spacing="0.5">Feature</text>
  <text x="66" y="416" text-anchor="middle" font-size="10" fill="#fdebd0">Selection</text>

  <g text-anchor="middle" font-size="9">
    <rect x="118" y="382" width="250" height="34" rx="3" fill="#fef9e7" stroke="#f9e79f" stroke-width="0.6"/>
    <text x="243" y="397" fill="#7d6608" font-weight="600">Zero-variance removal</text>
    <text x="243" y="410" fill="#b7950b" font-size="8">1 feature removed</text>

    <rect x="380" y="382" width="280" height="34" rx="3" fill="#fef9e7" stroke="#f9e79f" stroke-width="0.6"/>
    <text x="520" y="397" fill="#7d6608" font-weight="600">High-correlation removal (r ≥ 0.95)</text>
    <text x="520" y="410" fill="#b7950b" font-size="8">13 features removed</text>

    <rect x="672" y="382" width="234" height="34" rx="3" fill="#fef9e7" stroke="#f9e79f" stroke-width="0.6"/>
    <text x="789" y="397" fill="#7d6608" font-weight="600">Zero-importance removal</text>
    <text x="789" y="410" fill="#b7950b" font-size="8">2 features removed</text>
  </g>

  <rect x="118" y="424" width="788" height="12" rx="2" fill="#fdebd0"/>
  <text x="512" y="433" text-anchor="middle" font-size="8" fill="#b7950b" font-weight="500">81 dim → 65 dim  |  Protected attributes removed (is_female, age)</text>

  <!-- Arrows branching -->
  <path d="M 320 444 L 320 464 Q 320 472 310 472 L 244 472 Q 236 472 236 480 L 236 492" fill="none" stroke="#27ae60" stroke-width="1.3" marker-end="url(#a)"/>
  <path d="M 640 444 L 640 464 Q 640 472 650 472 L 716 472 Q 724 472 724 480 L 724 492" fill="none" stroke="#8e44ad" stroke-width="1.3" marker-end="url(#a)"/>
  <!-- Center dashed -->
  <path d="M 480 444 L 480 680" fill="none" stroke="#2980b9" stroke-width="1.2" stroke-dasharray="5,4" marker-end="url(#a)"/>

  <!-- ================================================================ -->
  <!-- ROW 4: DUAL BLOCK — AD + GNN -->
  <!-- ================================================================ -->

  <!-- Anomaly Detection -->
  <rect x="30" y="498" width="416" height="144" rx="4" fill="#fff" stroke="#bdc3c7" stroke-width="1"/>
  <rect x="30" y="498" width="72" height="144" rx="4" fill="#27ae60"/>
  <rect x="98" y="498" width="4" height="144" fill="#27ae60"/>
  <text x="66" y="556" text-anchor="middle" font-size="11" font-weight="700" fill="#fff" letter-spacing="0.3">Anomaly</text>
  <text x="66" y="572" text-anchor="middle" font-size="10" fill="#d5f5e3">Detection</text>

  <g text-anchor="middle" font-size="9">
    <rect x="118" y="512" width="100" height="64" rx="3" fill="#eafaf1" stroke="#a9dfbf" stroke-width="0.6"/>
    <rect x="118" y="512" width="100" height="20" rx="3" fill="#27ae60"/>
    <text x="168" y="526" fill="#fff" font-weight="600" font-size="9">Isolation Forest</text>
    <text x="168" y="548" fill="#1e8449" font-size="8">Random partition</text>
    <text x="168" y="560" fill="#1e8449" font-size="8">isolation scoring</text>

    <rect x="228" y="512" width="100" height="64" rx="3" fill="#eafaf1" stroke="#a9dfbf" stroke-width="0.6"/>
    <rect x="228" y="512" width="100" height="20" rx="3" fill="#27ae60"/>
    <text x="278" y="526" fill="#fff" font-weight="600" font-size="9">HBOS</text>
    <text x="278" y="548" fill="#1e8449" font-size="8">Histogram-based</text>
    <text x="278" y="560" fill="#1e8449" font-size="8">density estimation</text>

    <rect x="338" y="512" width="100" height="64" rx="3" fill="#eafaf1" stroke="#a9dfbf" stroke-width="0.6"/>
    <rect x="338" y="512" width="100" height="20" rx="3" fill="#27ae60"/>
    <text x="388" y="526" fill="#fff" font-weight="600" font-size="9">LOF</text>
    <text x="388" y="548" fill="#1e8449" font-size="8">Local outlier</text>
    <text x="388" y="560" fill="#1e8449" font-size="8">factor</text>
  </g>

  <rect x="118" y="588" width="320" height="40" rx="3" fill="#eafaf1" stroke="#a9dfbf" stroke-width="0.5"/>
  <text x="278" y="605" text-anchor="middle" font-size="9" fill="#1e8449" font-weight="600">Output: 3 anomaly score features</text>
  <text x="278" y="619" text-anchor="middle" font-size="8" fill="#7dcea0">if_score  |  hbos_score  |  lof_score</text>

  <!-- GNN -->
  <rect x="514" y="498" width="416" height="144" rx="4" fill="#fff" stroke="#bdc3c7" stroke-width="1"/>
  <rect x="514" y="498" width="72" height="144" rx="4" fill="#8e44ad"/>
  <rect x="582" y="498" width="4" height="144" fill="#8e44ad"/>
  <text x="550" y="560" text-anchor="middle" font-size="12" font-weight="700" fill="#fff" letter-spacing="0.3">GNN</text>

  <g text-anchor="middle" font-size="9">
    <rect x="600" y="512" width="100" height="64" rx="3" fill="#f5eef8" stroke="#d7bde2" stroke-width="0.6"/>
    <rect x="600" y="512" width="100" height="20" rx="3" fill="#8e44ad"/>
    <text x="650" y="526" fill="#fff" font-weight="600" font-size="8.5">Graph Build</text>
    <text x="650" y="548" fill="#6c3483" font-size="8">User ↔ Wallet</text>
    <text x="650" y="560" fill="#6c3483" font-size="8">bipartite graph</text>

    <rect x="710" y="512" width="108" height="64" rx="3" fill="#f5eef8" stroke="#d7bde2" stroke-width="0.6"/>
    <rect x="710" y="512" width="108" height="20" rx="3" fill="#8e44ad"/>
    <text x="764" y="526" fill="#fff" font-weight="600" font-size="8.5">HeteroSAGE+GAT</text>
    <text x="764" y="548" fill="#6c3483" font-size="8">Neighbor aggr.</text>
    <text x="764" y="560" fill="#6c3483" font-size="8">+ attention 80ep</text>

    <rect x="828" y="512" width="92" height="64" rx="3" fill="#f5eef8" stroke="#d7bde2" stroke-width="0.6"/>
    <rect x="828" y="512" width="92" height="20" rx="3" fill="#8e44ad"/>
    <text x="874" y="526" fill="#fff" font-weight="600" font-size="8.5">Embedding</text>
    <text x="874" y="548" fill="#6c3483" font-size="8">64d → PCA 16d</text>
    <text x="874" y="560" fill="#6c3483" font-size="8">92% variance</text>
  </g>

  <rect x="600" y="588" width="320" height="40" rx="3" fill="#f5eef8" stroke="#d7bde2" stroke-width="0.5"/>
  <text x="760" y="605" text-anchor="middle" font-size="9" fill="#6c3483" font-weight="600">Output: 16-dim node embeddings</text>
  <text x="760" y="619" text-anchor="middle" font-size="8" fill="#a569bd">~10K user nodes  |  ~16K wallet nodes</text>

  <!-- Merge arrows into Ensemble -->
  <path d="M 278 642 L 278 660 Q 278 668 290 668 L 410 668 Q 418 668 418 676 L 418 686" fill="none" stroke="#27ae60" stroke-width="1.3" marker-end="url(#a)"/>
  <rect x="308" y="656" width="88" height="14" rx="2" fill="#eafaf1" stroke="#a9dfbf" stroke-width="0.4"/>
  <text x="352" y="666" text-anchor="middle" font-size="7" fill="#1e8449" font-weight="600">anomaly scores</text>

  <path d="M 760 642 L 760 660 Q 760 668 748 668 L 610 668 Q 602 668 602 676 L 602 686" fill="none" stroke="#8e44ad" stroke-width="1.3" marker-end="url(#a)"/>
  <rect x="638" y="656" width="88" height="14" rx="2" fill="#f5eef8" stroke="#d7bde2" stroke-width="0.4"/>
  <text x="682" y="666" text-anchor="middle" font-size="7" fill="#6c3483" font-weight="600">embeddings</text>

  <!-- Center label -->
  <rect x="448" y="584" width="68" height="14" rx="2" fill="#d6eaf8" stroke="#85c1e9" stroke-width="0.4"/>
  <text x="482" y="594" text-anchor="middle" font-size="7" fill="#2471a3" font-weight="600">63 features</text>

  <!-- ================================================================ -->
  <!-- ROW 5: STACKING ENSEMBLE -->
  <!-- ================================================================ -->
  <rect x="30" y="692" width="900" height="168" rx="4" fill="#fff" stroke="#bdc3c7" stroke-width="1"/>
  <rect x="30" y="692" width="72" height="168" rx="4" fill="#c0392b"/>
  <rect x="98" y="692" width="4" height="168" fill="#c0392b"/>
  <text x="66" y="764" text-anchor="middle" font-size="11" font-weight="700" fill="#fff" letter-spacing="0.3">Stacking</text>
  <text x="66" y="780" text-anchor="middle" font-size="10" fill="#f5b7b1">Ensemble</text>

  <!-- Layer 0 label -->
  <text x="118" y="712" font-size="8" fill="#922b21" font-weight="700" letter-spacing="0.5">LAYER 0 — BASE LEARNERS (5-Fold Stratified CV)</text>

  <g text-anchor="middle" font-size="9">
    <rect x="118" y="720" width="210" height="66" rx="3" fill="#fdedec" stroke="#f5b7b1" stroke-width="0.6"/>
    <rect x="118" y="720" width="210" height="20" rx="3" fill="#c0392b"/>
    <text x="223" y="734" fill="#fff" font-weight="600" font-size="10">XGBoost</text>
    <text x="223" y="756" fill="#922b21" font-size="8">2500 iter  |  depth=6</text>
    <text x="223" y="768" fill="#922b21" font-size="8">scale_pos_weight=50</text>
    <text x="223" y="780" fill="#b03a2e" font-size="7.5">AUCPR eval metric</text>

    <rect x="340" y="720" width="210" height="66" rx="3" fill="#fdedec" stroke="#f5b7b1" stroke-width="0.6"/>
    <rect x="340" y="720" width="210" height="20" rx="3" fill="#c0392b"/>
    <text x="445" y="734" fill="#fff" font-weight="600" font-size="10">LightGBM</text>
    <text x="445" y="756" fill="#922b21" font-size="8">2500 iter  |  Focal Loss</text>
    <text x="445" y="768" fill="#922b21" font-size="8">alpha=0.75  |  gamma=2.0</text>
    <text x="445" y="780" fill="#b03a2e" font-size="7.5">leaves=63  |  depth=4</text>

    <rect x="562" y="720" width="210" height="66" rx="3" fill="#fdedec" stroke="#f5b7b1" stroke-width="0.6"/>
    <rect x="562" y="720" width="210" height="20" rx="3" fill="#c0392b"/>
    <text x="667" y="734" fill="#fff" font-weight="600" font-size="10">CatBoost</text>
    <text x="667" y="756" fill="#922b21" font-size="8">2500 iter  |  depth=7</text>
    <text x="667" y="768" fill="#922b21" font-size="8">Ordered Boosting</text>
    <text x="667" y="780" fill="#b03a2e" font-size="7.5">bagging_temp=0.8</text>
  </g>

  <!-- Meta Learner -->
  <text x="790" y="712" font-size="8" fill="#922b21" font-weight="700" letter-spacing="0.5">LAYER 1 — META</text>
  <rect x="784" y="720" width="122" height="66" rx="3" fill="#c0392b" stroke="#922b21" stroke-width="0.8"/>
  <text x="845" y="748" text-anchor="middle" font-weight="700" fill="#fff" font-size="10.5">Logistic Reg.</text>
  <text x="845" y="764" text-anchor="middle" fill="#f5b7b1" font-size="7.5">[probs, max, min,</text>
  <text x="845" y="775" text-anchor="middle" fill="#f5b7b1" font-size="7.5">std, mean]</text>

  <!-- Base → Meta arrows -->
  <path d="M 223 786 Q 223 798 500 802 Q 784 802 784 770" fill="none" stroke="#e6b0aa" stroke-width="1" marker-end="url(#aR)"/>
  <path d="M 445 786 Q 445 796 614 798 Q 784 798 784 770" fill="none" stroke="#e6b0aa" stroke-width="0.8"/>
  <path d="M 667 786 Q 667 794 726 796 Q 784 796 784 770" fill="none" stroke="#e6b0aa" stroke-width="0.8"/>

  <!-- Threshold bar -->
  <rect x="118" y="818" width="788" height="28" rx="3" fill="#fdedec" stroke="#f5b7b1" stroke-width="0.5"/>
  <text x="512" y="836" text-anchor="middle" font-size="9" fill="#922b21" font-weight="500">Threshold Optimization: PR-Curve F-beta scan  |  OOF: 0.857  |  Test: 0.868</text>

  <!-- Arrow -->
  <line x1="480" y1="860" x2="480" y2="884" stroke="#5b7a9d" stroke-width="1.4" marker-end="url(#a)"/>

  <!-- ================================================================ -->
  <!-- ROW 6: POST-PROCESSING -->
  <!-- ================================================================ -->
  <rect x="30" y="890" width="900" height="118" rx="4" fill="#fff" stroke="#bdc3c7" stroke-width="1"/>
  <rect x="30" y="890" width="72" height="118" rx="4" fill="#2471a3"/>
  <rect x="98" y="890" width="4" height="118" fill="#2471a3"/>
  <text x="66" y="940" text-anchor="middle" font-size="11" font-weight="700" fill="#fff" letter-spacing="0.3">Output</text>
  <text x="66" y="956" text-anchor="middle" font-size="10" fill="#aed6f1">&amp; Report</text>

  <g text-anchor="middle" font-size="9">
    <rect x="118" y="904" width="190" height="62" rx="3" fill="#d6eaf8" stroke="#85c1e9" stroke-width="0.6"/>
    <rect x="118" y="904" width="190" height="20" rx="3" fill="#2471a3"/>
    <text x="213" y="918" fill="#fff" font-weight="600" font-size="9.5">SHAP Explainability</text>
    <text x="213" y="940" fill="#1a5276" font-size="8">Global + Local ranking</text>
    <text x="213" y="952" fill="#1a5276" font-size="8">SSR stability | Counterfactual</text>

    <rect x="320" y="904" width="190" height="62" rx="3" fill="#d6eaf8" stroke="#85c1e9" stroke-width="0.6"/>
    <rect x="320" y="904" width="190" height="20" rx="3" fill="#2471a3"/>
    <text x="415" y="918" fill="#fff" font-weight="600" font-size="9.5">Fairness Audit</text>
    <text x="415" y="940" fill="#1a5276" font-size="8">Gender | Age | Career | Income</text>
    <text x="415" y="952" fill="#1a5276" font-size="8">DPD | TPR Gap | FPR Gap | DIR</text>

    <rect x="522" y="904" width="190" height="62" rx="3" fill="#d6eaf8" stroke="#85c1e9" stroke-width="0.6"/>
    <rect x="522" y="904" width="190" height="20" rx="3" fill="#2471a3"/>
    <text x="617" y="918" fill="#fff" font-weight="600" font-size="9.5">Risk Reports</text>
    <text x="617" y="940" fill="#1a5276" font-size="8">Natural language narratives</text>
    <text x="617" y="952" fill="#1a5276" font-size="8">Per-user counterfactual</text>

    <rect x="724" y="904" width="182" height="62" rx="3" fill="#d6eaf8" stroke="#85c1e9" stroke-width="0.6"/>
    <rect x="724" y="904" width="182" height="20" rx="3" fill="#2471a3"/>
    <text x="815" y="918" fill="#fff" font-weight="600" font-size="9.5">React Dashboard</text>
    <text x="815" y="940" fill="#1a5276" font-size="8">2D / 3D force-directed graph</text>
    <text x="815" y="952" fill="#1a5276" font-size="8">FP/FN analysis | Predict</text>
  </g>

  <!-- Bottom bar -->
  <rect x="118" y="978" width="788" height="18" rx="2" fill="#eaf2f8" stroke="#85c1e9" stroke-width="0.4"/>
  <text x="512" y="990" text-anchor="middle" font-size="8" fill="#2471a3" font-weight="500">metrics.json  |  user_risk_scores.csv  |  shap_all_features.csv  |  fairness_summary.json  |  risk_reports.txt</text>

  <!-- Footer -->
  <text x="480" y="1040" text-anchor="middle" font-size="9" fill="#95a5a6">BitoGuard  |  BitoGroup x AWS Blacklist User Detection Competition</text>
  <text x="480" y="1056" text-anchor="middle" font-size="8.5" fill="#95a5a6">AUC-ROC 0.8612  |  AUC-PR 0.3071  |  F1 0.9720  |  Precision 0.2906  |  Recall 0.4634</text>
</svg>