<svg xmlns="http://www.w3.org/2000/svg" viewBox="0 0 1100 500" font-family="'Inter','SF Pro Display','Noto Sans TC','PingFang TC',system-ui,sans-serif">
  <defs>
    <marker id="af" markerWidth="6" markerHeight="4" refX="6" refY="2" orient="auto"><path d="M0,0.3 L5,2 L0,3.7" fill="#94a3b8"/></marker>
    <marker id="afG" markerWidth="6" markerHeight="4" refX="6" refY="2" orient="auto"><path d="M0,0.3 L5,2 L0,3.7" fill="#27ae60"/></marker>
    <filter id="gl">
      <feGaussianBlur stdDeviation="4" result="b"/>
      <feMerge><feMergeNode in="b"/><feMergeNode in="SourceGraphic"/></feMerge>
    </filter>
  </defs>

  <rect width="1100" height="500" fill="#fff"/>

  <!-- Title -->
  <text x="550" y="24" text-anchor="middle" font-size="15" font-weight="700" fill="#1e293b" letter-spacing="0.5">Heterogeneous Graph Neural Network Architecture</text>

  <!-- Phase labels -->
  <rect x="16" y="40" width="310" height="20" rx="3" fill="#2980b9"/>
  <text x="171" y="54" text-anchor="middle" font-size="8.5" fill="#fff" font-weight="600">Heterogeneous Graph  (User + Wallet Nodes)</text>
  <rect x="344" y="40" width="184" height="20" rx="3" fill="#e67e22"/>
  <text x="436" y="54" text-anchor="middle" font-size="8.5" fill="#fff" font-weight="600">HeteroSAGE  (Aggregate)</text>
  <rect x="546" y="40" width="184" height="20" rx="3" fill="#c0392b"/>
  <text x="638" y="54" text-anchor="middle" font-size="8.5" fill="#fff" font-weight="600">GATConv  (Attention)</text>
  <rect x="748" y="40" width="168" height="20" rx="3" fill="#8e44ad"/>
  <text x="832" y="54" text-anchor="middle" font-size="8.5" fill="#fff" font-weight="600">Projection  (MLP)</text>
  <rect x="934" y="40" width="150" height="20" rx="3" fill="#27ae60"/>
  <text x="1009" y="54" text-anchor="middle" font-size="8.5" fill="#fff" font-weight="600">Embedding  (PCA)</text>

  <!-- ================================================================ -->
  <!-- SECTION 1: Messy heterogeneous graph -->
  <!-- ================================================================ -->
  <rect x="16" y="68" width="310" height="380" rx="6" fill="#f7fbff" stroke="#c6ddf0" stroke-width="0.8"/>

  <!-- EDGES first (behind nodes) -->
  <!-- User-Wallet edges (sends/receives) — scattered -->
  <g stroke="#5dade2" stroke-width="0.8" opacity="0.25">
    <line x1="68" y1="130" x2="195" y2="108"/>
    <line x1="68" y1="130" x2="260" y2="175"/>
    <line x1="105" y1="215" x2="195" y2="108"/>
    <line x1="105" y1="215" x2="230" y2="280"/>
    <line x1="150" y1="310" x2="230" y2="280"/>
    <line x1="150" y1="310" x2="290" y2="340"/>
    <line x1="80" y1="345" x2="230" y2="280"/>
    <line x1="80" y1="345" x2="290" y2="340"/>
    <line x1="175" y1="140" x2="260" y2="175"/>
    <line x1="175" y1="140" x2="195" y2="108"/>
    <line x1="55" y1="260" x2="290" y2="340"/>
    <line x1="55" y1="260" x2="230" y2="280"/>
    <line x1="130" y1="395" x2="290" y2="340"/>
    <line x1="240" y1="400" x2="290" y2="340"/>
    <line x1="240" y1="400" x2="260" y2="175"/>
    <line x1="58" y1="180" x2="195" y2="108"/>
  </g>
  <!-- User-User edges (internal transfer) -->
  <g stroke="#af7ac5" stroke-width="0.9" opacity="0.2">
    <line x1="68" y1="130" x2="105" y2="215"/>
    <line x1="105" y1="215" x2="150" y2="310"/>
    <line x1="68" y1="130" x2="175" y2="140"/>
    <line x1="175" y1="140" x2="105" y2="215"/>
    <line x1="80" y1="345" x2="150" y2="310"/>
    <line x1="55" y1="260" x2="105" y2="215"/>
    <line x1="55" y1="260" x2="80" y2="345"/>
    <line x1="150" y1="310" x2="240" y2="400"/>
    <line x1="130" y1="395" x2="80" y2="345"/>
    <line x1="58" y1="180" x2="68" y2="130"/>
    <line x1="58" y1="180" x2="55" y2="260"/>
    <line x1="130" y1="395" x2="240" y2="400"/>
  </g>
  <!-- Some highlighted risk edges (thicker, red) -->
  <g stroke="#e74c3c" stroke-width="1.8" opacity="0.3">
    <line x1="68" y1="130" x2="105" y2="215"/>
    <line x1="105" y1="215" x2="230" y2="280"/>
    <line x1="68" y1="130" x2="195" y2="108"/>
    <line x1="175" y1="140" x2="260" y2="175"/>
  </g>

  <!-- USER NODES (circles, scattered) -->
  <!-- High risk users (red shades) -->
  <circle cx="68" cy="130" r="11" fill="#e74c3c" stroke="#c0392b" stroke-width="1.5"/>
  <circle cx="105" cy="215" r="9" fill="#e74c3c" stroke="#c0392b" stroke-width="1.2" opacity="0.85"/>
  <circle cx="175" cy="140" r="10" fill="#eb984e" stroke="#d68910" stroke-width="1.2"/>
  <!-- Medium risk -->
  <circle cx="150" cy="310" r="8" fill="#f39c12" stroke="#d68910" stroke-width="1"/>
  <circle cx="55" cy="260" r="7" fill="#f5b041" stroke="#d68910" stroke-width="1" opacity="0.7"/>
  <circle cx="58" cy="180" r="6" fill="#f39c12" stroke="#d68910" stroke-width="0.8" opacity="0.6"/>
  <!-- Low risk users (green shades) -->
  <circle cx="80" cy="345" r="8" fill="#27ae60" stroke="#1e8449" stroke-width="1"/>
  <circle cx="130" cy="395" r="7" fill="#2ecc71" stroke="#27ae60" stroke-width="0.8" opacity="0.7"/>
  <circle cx="240" cy="400" r="6" fill="#82e0aa" stroke="#27ae60" stroke-width="0.8" opacity="0.6"/>

  <!-- WALLET NODES (squares, scattered) -->
  <rect x="188" y="100" width="16" height="16" rx="3" fill="#3498db" stroke="#2471a3" stroke-width="1.2"/>
  <rect x="252" y="167" width="16" height="16" rx="3" fill="#5dade2" stroke="#2e86c1" stroke-width="1"/>
  <rect x="222" y="272" width="16" height="16" rx="3" fill="#3498db" stroke="#2471a3" stroke-width="1.2"/>
  <rect x="282" y="332" width="16" height="16" rx="3" fill="#85c1e9" stroke="#5dade2" stroke-width="0.8" opacity="0.7"/>
  <!-- Extra tiny wallet nodes for density -->
  <rect x="160" y="230" width="10" height="10" rx="2" fill="#aed6f1" stroke="#5dade2" stroke-width="0.5" opacity="0.5"/>
  <rect x="270" y="240" width="10" height="10" rx="2" fill="#aed6f1" stroke="#5dade2" stroke-width="0.5" opacity="0.4"/>
  <rect x="210" y="360" width="10" height="10" rx="2" fill="#aed6f1" stroke="#5dade2" stroke-width="0.5" opacity="0.4"/>
  <rect x="140" y="160" width="9" height="9" rx="2" fill="#aed6f1" stroke="#5dade2" stroke-width="0.5" opacity="0.35"/>
  <rect x="295" y="120" width="9" height="9" rx="2" fill="#aed6f1" stroke="#5dade2" stroke-width="0.5" opacity="0.3"/>
  <rect x="40" y="300" width="9" height="9" rx="2" fill="#aed6f1" stroke="#5dade2" stroke-width="0.5" opacity="0.3"/>
  <rect x="255" y="395" width="8" height="8" rx="2" fill="#aed6f1" stroke="#5dade2" stroke-width="0.5" opacity="0.25"/>

  <!-- More faint edges to tiny wallets -->
  <g stroke="#aed6f1" stroke-width="0.5" opacity="0.15">
    <line x1="68" y1="130" x2="145" y2="164"/>
    <line x1="105" y1="215" x2="165" y2="235"/>
    <line x1="150" y1="310" x2="215" y2="365"/>
    <line x1="175" y1="140" x2="299" y2="124"/>
    <line x1="55" y1="260" x2="44" y2="304"/>
    <line x1="80" y1="345" x2="44" y2="304"/>
    <line x1="240" y1="400" x2="259" y2="399"/>
    <line x1="130" y1="395" x2="215" y2="365"/>
    <line x1="175" y1="140" x2="165" y2="235"/>
    <line x1="55" y1="260" x2="275" y2="245"/>
  </g>

  <!-- Legend -->
  <g transform="translate(28, 420)">
    <circle cx="6" cy="0" r="5" fill="#e74c3c" opacity="0.8"/>
    <text x="16" y="3" font-size="7" fill="#7f8c8d">High risk user</text>
    <circle cx="88" cy="0" r="5" fill="#f39c12" opacity="0.7"/>
    <text x="98" y="3" font-size="7" fill="#7f8c8d">Medium</text>
    <circle cx="148" cy="0" r="5" fill="#27ae60" opacity="0.7"/>
    <text x="158" y="3" font-size="7" fill="#7f8c8d">Low risk</text>
    <rect x="202" y="-5" width="10" height="10" rx="2" fill="#3498db"/>
    <text x="216" y="3" font-size="7" fill="#7f8c8d">Wallet</text>
  </g>
  <text x="171" y="444" text-anchor="middle" font-size="7.5" fill="#94a3b8">~10,204 users  |  ~16,000 wallets  |  239,958 edges</text>

  <!-- ================================================================ -->
  <!-- Arrow graph → SAGE -->
  <!-- ================================================================ -->
  <path d="M 326 240 L 354 240" fill="none" stroke="#94a3b8" stroke-width="2" marker-end="url(#af)"/>

  <!-- ================================================================ -->
  <!-- SECTION 2: HeteroSAGE aggregation -->
  <!-- ================================================================ -->
  <rect x="344" y="68" width="184" height="380" rx="6" fill="#fef9f0" stroke="#f5cba7" stroke-width="0.8"/>

  <!-- Scattered neighbor nodes -->
  <circle cx="380" cy="120" r="7" fill="#e74c3c" opacity="0.4"/>
  <circle cx="420" cy="100" r="6" fill="#27ae60" opacity="0.35"/>
  <circle cx="395" cy="175" r="5" fill="#f39c12" opacity="0.35"/>
  <rect x="485" y="110" width="10" height="10" rx="2" fill="#3498db" opacity="0.35"/>
  <circle cx="500" cy="155" r="6" fill="#e74c3c" opacity="0.3"/>
  <rect x="370" y="280" width="10" height="10" rx="2" fill="#3498db" opacity="0.3"/>
  <circle cx="490" cy="310" r="5" fill="#27ae60" opacity="0.3"/>
  <circle cx="385" cy="340" r="6" fill="#f39c12" opacity="0.3"/>
  <rect x="460" y="355" width="9" height="9" rx="2" fill="#5dade2" opacity="0.25"/>
  <circle cx="510" cy="380" r="5" fill="#e74c3c" opacity="0.25"/>
  <circle cx="370" cy="400" r="4" fill="#27ae60" opacity="0.2"/>

  <!-- Aggregation arrows converging to center target -->
  <g stroke="#e67e22" stroke-width="1.5" opacity="0.35">
    <line x1="380" y1="120" x2="430" y2="225"/>
    <line x1="420" y1="100" x2="432" y2="218"/>
    <line x1="395" y1="175" x2="428" y2="222"/>
    <line x1="490" y1="118" x2="446" y2="220"/>
    <line x1="500" y1="155" x2="448" y2="222"/>
    <line x1="375" y1="285" x2="428" y2="242"/>
    <line x1="490" y1="310" x2="448" y2="248"/>
    <line x1="385" y1="340" x2="430" y2="252"/>
    <line x1="465" y1="360" x2="444" y2="252"/>
    <line x1="510" y1="380" x2="450" y2="255"/>
  </g>

  <!-- Thicker key aggregation paths -->
  <g stroke="#e67e22" stroke-width="3" opacity="0.4">
    <line x1="380" y1="120" x2="430" y2="225"/>
    <line x1="490" y1="118" x2="446" y2="220"/>
    <line x1="375" y1="285" x2="428" y2="242"/>
  </g>

  <!-- Target node -->
  <circle cx="438" cy="238" r="18" fill="#f39c12" stroke="#d68910" stroke-width="2.5" filter="url(#gl)"/>
  <text x="438" y="234" text-anchor="middle" font-size="7" fill="#fff" font-weight="700">target</text>
  <text x="438" y="244" text-anchor="middle" font-size="6" fill="#fff">node</text>

  <!-- Label -->
  <text x="436" y="87" text-anchor="middle" font-size="8" fill="#e67e22" font-weight="600">3x SAGEConv</text>
  <text x="436" y="415" text-anchor="middle" font-size="7" fill="#b7950b">sage_u2w | sage_w2u | sage_u2u</text>
  <text x="436" y="430" text-anchor="middle" font-size="7" fill="#b7950b">h' = MEAN(h_neighbors) + h_self</text>
  <text x="436" y="444" text-anchor="middle" font-size="7" fill="#d4ac0d">→ 128-d  |  + BatchNorm + ReLU</text>

  <!-- Arrow SAGE → GAT -->
  <path d="M 528 240 L 556 240" fill="none" stroke="#94a3b8" stroke-width="2" marker-end="url(#af)"/>

  <!-- ================================================================ -->
  <!-- SECTION 3: GAT attention -->
  <!-- ================================================================ -->
  <rect x="546" y="68" width="184" height="380" rx="6" fill="#fdf2f2" stroke="#f5b7b1" stroke-width="0.8"/>

  <!-- Scattered user nodes (only u-u edges for GAT) -->
  <circle cx="590" cy="115" r="7" fill="#e74c3c" opacity="0.5"/>
  <circle cx="570" cy="190" r="6" fill="#f39c12" opacity="0.4"/>
  <circle cx="610" cy="170" r="5" fill="#27ae60" opacity="0.35"/>
  <circle cx="700" cy="130" r="6" fill="#e74c3c" opacity="0.4"/>
  <circle cx="695" cy="200" r="5" fill="#f39c12" opacity="0.3"/>
  <circle cx="580" cy="305" r="6" fill="#27ae60" opacity="0.3"/>
  <circle cx="700" cy="320" r="7" fill="#e74c3c" opacity="0.35"/>
  <circle cx="605" cy="370" r="5" fill="#f39c12" opacity="0.25"/>
  <circle cx="690" cy="380" r="4" fill="#27ae60" opacity="0.2"/>
  <circle cx="570" cy="400" r="4" fill="#e74c3c" opacity="0.2"/>

  <!-- Attention edges — varying thickness = attention weight -->
  <!-- High attention (thick) -->
  <line x1="590" y1="115" x2="636" y2="230" stroke="#c0392b" stroke-width="4" opacity="0.35"/>
  <line x1="700" y1="130" x2="650" y2="225" stroke="#c0392b" stroke-width="3.5" opacity="0.3"/>
  <!-- Medium attention -->
  <line x1="570" y1="190" x2="632" y2="232" stroke="#c0392b" stroke-width="2" opacity="0.22"/>
  <line x1="700" y1="320" x2="650" y2="255" stroke="#c0392b" stroke-width="2.2" opacity="0.2"/>
  <!-- Low attention (thin) -->
  <line x1="610" y1="170" x2="636" y2="228" stroke="#c0392b" stroke-width="1" opacity="0.12"/>
  <line x1="695" y1="200" x2="648" y2="230" stroke="#c0392b" stroke-width="0.8" opacity="0.1"/>
  <line x1="580" y1="305" x2="634" y2="254" stroke="#c0392b" stroke-width="1.2" opacity="0.12"/>
  <line x1="605" y1="370" x2="638" y2="260" stroke="#c0392b" stroke-width="0.6" opacity="0.08"/>
  <line x1="690" y1="380" x2="648" y2="260" stroke="#c0392b" stroke-width="0.5" opacity="0.06"/>

  <!-- Target node with multi-head highlight -->
  <circle cx="642" cy="243" r="20" fill="#f39c12" stroke="#c0392b" stroke-width="2.5" filter="url(#gl)"/>
  <text x="642" y="239" text-anchor="middle" font-size="7" fill="#fff" font-weight="700">target</text>
  <text x="642" y="249" text-anchor="middle" font-size="6" fill="#fff">node</text>

  <!-- Attention weight labels on two strongest edges -->
  <rect x="596" y="162" width="30" height="12" rx="2" fill="#fdf2f2" stroke="#f5b7b1" stroke-width="0.3"/>
  <text x="611" y="171" text-anchor="middle" font-size="6" fill="#c0392b" font-weight="700">0.62</text>
  <rect x="666" y="168" width="30" height="12" rx="2" fill="#fdf2f2" stroke="#f5b7b1" stroke-width="0.3"/>
  <text x="681" y="177" text-anchor="middle" font-size="6" fill="#c0392b" font-weight="700">0.25</text>

  <!-- Label -->
  <text x="638" y="87" text-anchor="middle" font-size="8" fill="#c0392b" font-weight="600">4-Head Attention</text>
  <text x="638" y="415" text-anchor="middle" font-size="7" fill="#922b21">User ↔ User edges only</text>
  <text x="638" y="430" text-anchor="middle" font-size="7" fill="#922b21">Edge thickness = attention weight</text>
  <text x="638" y="444" text-anchor="middle" font-size="7" fill="#b03a2e">→ 128-d  |  + BatchNorm</text>

  <!-- Arrow GAT → MLP -->
  <path d="M 730 240 L 758 240" fill="none" stroke="#94a3b8" stroke-width="2" marker-end="url(#af)"/>

  <!-- ================================================================ -->
  <!-- SECTION 4: MLP Projection -->
  <!-- ================================================================ -->
  <rect x="748" y="68" width="168" height="380" rx="6" fill="#f8f0fd" stroke="#d7bde2" stroke-width="0.8"/>

  <text x="832" y="87" text-anchor="middle" font-size="8" fill="#8e44ad" font-weight="600">Projection Head</text>

  <!-- Neural network layers visualization -->
  <!-- Input layer (128-d, more dots) -->
  <g>
    <circle cx="776" cy="115" r="4" fill="#8e44ad" opacity="0.7"/>
    <circle cx="776" cy="130" r="4" fill="#8e44ad" opacity="0.65"/>
    <circle cx="776" cy="145" r="4" fill="#8e44ad" opacity="0.6"/>
    <circle cx="776" cy="160" r="4" fill="#8e44ad" opacity="0.55"/>
    <circle cx="776" cy="175" r="4" fill="#8e44ad" opacity="0.5"/>
    <circle cx="776" cy="190" r="4" fill="#8e44ad" opacity="0.45"/>
    <circle cx="776" cy="205" r="4" fill="#8e44ad" opacity="0.4"/>
    <text x="776" y="222" text-anchor="middle" font-size="6" fill="#8e44ad">...</text>
    <circle cx="776" cy="240" r="4" fill="#8e44ad" opacity="0.35"/>
    <circle cx="776" cy="255" r="4" fill="#8e44ad" opacity="0.35"/>
    <circle cx="776" cy="270" r="4" fill="#8e44ad" opacity="0.3"/>
    <circle cx="776" cy="285" r="4" fill="#8e44ad" opacity="0.3"/>
    <circle cx="776" cy="300" r="4" fill="#8e44ad" opacity="0.25"/>
    <circle cx="776" cy="315" r="4" fill="#8e44ad" opacity="0.25"/>
    <circle cx="776" cy="330" r="4" fill="#8e44ad" opacity="0.2"/>
    <circle cx="776" cy="345" r="4" fill="#8e44ad" opacity="0.2"/>
    <circle cx="776" cy="360" r="4" fill="#8e44ad" opacity="0.15"/>
    <circle cx="776" cy="375" r="4" fill="#8e44ad" opacity="0.15"/>
  </g>
  <text x="776" y="398" text-anchor="middle" font-size="7" fill="#8e44ad" font-weight="600">128-d</text>

  <!-- Hidden connections -->
  <g stroke="#1e293b" stroke-width="0.3" opacity="0.3">
    <line x1="780" y1="115" x2="828" y2="140"/><line x1="780" y1="115" x2="828" y2="185"/>
    <line x1="780" y1="130" x2="828" y2="140"/><line x1="780" y1="130" x2="828" y2="230"/>
    <line x1="780" y1="145" x2="828" y2="185"/><line x1="780" y1="160" x2="828" y2="230"/>
    <line x1="780" y1="175" x2="828" y2="275"/><line x1="780" y1="190" x2="828" y2="185"/>
    <line x1="780" y1="240" x2="828" y2="230"/><line x1="780" y1="255" x2="828" y2="275"/>
    <line x1="780" y1="270" x2="828" y2="320"/><line x1="780" y1="285" x2="828" y2="275"/>
    <line x1="780" y1="300" x2="828" y2="320"/><line x1="780" y1="315" x2="828" y2="365"/>
    <line x1="780" y1="330" x2="828" y2="320"/><line x1="780" y1="345" x2="828" y2="365"/>
    <line x1="780" y1="360" x2="828" y2="365"/><line x1="780" y1="375" x2="828" y2="365"/>
    <line x1="780" y1="205" x2="828" y2="140"/><line x1="780" y1="205" x2="828" y2="275"/>
  </g>

  <!-- Hidden layer (ReLU + Dropout) -->
  <g>
    <circle cx="832" cy="140" r="4.5" fill="#8e44ad" opacity="0.7"/>
    <circle cx="832" cy="185" r="4.5" fill="#8e44ad" opacity="0.6"/>
    <circle cx="832" cy="230" r="4.5" fill="#8e44ad" opacity="0.55"/>
    <circle cx="832" cy="275" r="4.5" fill="#8e44ad" opacity="0.45"/>
    <circle cx="832" cy="320" r="4.5" fill="#8e44ad" opacity="0.35"/>
    <circle cx="832" cy="365" r="4.5" fill="#8e44ad" opacity="0.25"/>
    <!-- Dropout X marks -->
    <line x1="827" y1="225" x2="837" y2="235" stroke="#c0392b" stroke-width="1" opacity="0.4"/>
    <line x1="837" y1="225" x2="827" y2="235" stroke="#c0392b" stroke-width="1" opacity="0.4"/>
    <line x1="827" y1="360" x2="837" y2="370" stroke="#c0392b" stroke-width="1" opacity="0.3"/>
    <line x1="837" y1="360" x2="827" y2="370" stroke="#c0392b" stroke-width="1" opacity="0.3"/>
  </g>

  <!-- Output connections -->
  <g stroke="#1e293b" stroke-width="0.3" opacity="0.25">
    <line x1="836" y1="140" x2="888" y2="160"/><line x1="836" y1="140" x2="888" y2="220"/>
    <line x1="836" y1="185" x2="888" y2="190"/><line x1="836" y1="185" x2="888" y2="250"/>
    <line x1="836" y1="275" x2="888" y2="280"/><line x1="836" y1="275" x2="888" y2="310"/>
    <line x1="836" y1="320" x2="888" y2="310"/><line x1="836" y1="320" x2="888" y2="340"/>
  </g>

  <!-- Output layer (64-d) -->
  <g>
    <circle cx="892" cy="130" r="3.5" fill="#27ae60" opacity="0.7"/>
    <circle cx="892" cy="145" r="3.5" fill="#27ae60" opacity="0.65"/>
    <circle cx="892" cy="160" r="3.5" fill="#27ae60" opacity="0.6"/>
    <circle cx="892" cy="175" r="3.5" fill="#27ae60" opacity="0.55"/>
    <circle cx="892" cy="190" r="3.5" fill="#27ae60" opacity="0.5"/>
    <circle cx="892" cy="205" r="3.5" fill="#27ae60" opacity="0.45"/>
    <circle cx="892" cy="220" r="3.5" fill="#27ae60" opacity="0.4"/>
    <circle cx="892" cy="235" r="3.5" fill="#27ae60" opacity="0.38"/>
    <circle cx="892" cy="250" r="3.5" fill="#27ae60" opacity="0.35"/>
    <circle cx="892" cy="265" r="3.5" fill="#27ae60" opacity="0.32"/>
    <circle cx="892" cy="280" r="3.5" fill="#27ae60" opacity="0.3"/>
    <circle cx="892" cy="295" r="3.5" fill="#27ae60" opacity="0.28"/>
    <circle cx="892" cy="310" r="3.5" fill="#27ae60" opacity="0.25"/>
    <circle cx="892" cy="325" r="3.5" fill="#27ae60" opacity="0.22"/>
    <circle cx="892" cy="340" r="3.5" fill="#27ae60" opacity="0.2"/>
    <circle cx="892" cy="355" r="3.5" fill="#27ae60" opacity="0.18"/>
    <circle cx="892" cy="370" r="3.5" fill="#27ae60" opacity="0.15"/>
  </g>
  <text x="892" y="398" text-anchor="middle" font-size="7" fill="#27ae60" font-weight="600">64-d</text>

  <!-- Layer labels -->
  <text x="776" y="412" text-anchor="middle" font-size="6" fill="#7f8c8d">Input</text>
  <text x="832" y="412" text-anchor="middle" font-size="6" fill="#7f8c8d">ReLU+Drop</text>
  <text x="892" y="412" text-anchor="middle" font-size="6" fill="#7f8c8d">Output</text>

  <text x="832" y="444" text-anchor="middle" font-size="7" fill="#7d3c98">Linear → ReLU → Dropout(0.2)</text>

  <!-- Arrow MLP → Embedding -->
  <path d="M 916 240 L 944 240" fill="none" stroke="#94a3b8" stroke-width="2" marker-end="url(#af)"/>

  <!-- ================================================================ -->
  <!-- SECTION 5: Final Embedding -->
  <!-- ================================================================ -->
  <rect x="934" y="68" width="150" height="380" rx="6" fill="#f0fdf4" stroke="#a9dfbf" stroke-width="0.8"/>

  <text x="1009" y="87" text-anchor="middle" font-size="8" fill="#27ae60" font-weight="600">PCA 64→16</text>

  <!-- 16-d embedding — large colorful bars (top group dim 0-4) -->
  <g transform="translate(954, 102)">
    <!-- Y axis -->
    <line x1="-4" y1="0" x2="-4" y2="112" stroke="#1e293b" stroke-width="0.8"/>
    <!-- X axis -->
    <line x1="-4" y1="112" x2="92" y2="112" stroke="#1e293b" stroke-width="0.8"/>
    <!-- Y ticks -->
    <line x1="-8" y1="0" x2="-4" y2="0" stroke="#1e293b" stroke-width="0.6"/>
    <text x="-12" y="3" text-anchor="end" font-size="5" fill="#1e293b">1.0</text>
    <line x1="-8" y1="56" x2="-4" y2="56" stroke="#1e293b" stroke-width="0.6"/>
    <text x="-12" y="59" text-anchor="end" font-size="5" fill="#1e293b">0.5</text>
    <line x1="-8" y1="112" x2="-4" y2="112" stroke="#1e293b" stroke-width="0.6"/>
    <text x="-12" y="115" text-anchor="end" font-size="5" fill="#1e293b">0</text>

    <!-- Bars -->
    <rect x="2" y="0" width="14" height="100" rx="2" fill="#e74c3c" opacity="0.8"/>
    <rect x="20" y="12" width="14" height="88" rx="2" fill="#e74c3c" opacity="0.6"/>
    <rect x="38" y="25" width="14" height="75" rx="2" fill="#f39c12" opacity="0.7"/>
    <rect x="56" y="8" width="14" height="92" rx="2" fill="#f39c12" opacity="0.5"/>
    <rect x="74" y="20" width="14" height="80" rx="2" fill="#27ae60" opacity="0.6"/>

    <!-- X labels -->
    <text x="9" y="124" text-anchor="middle" font-size="5.5" fill="#1e293b">0</text>
    <text x="27" y="124" text-anchor="middle" font-size="5.5" fill="#1e293b">1</text>
    <text x="45" y="124" text-anchor="middle" font-size="5.5" fill="#1e293b">2</text>
    <text x="63" y="124" text-anchor="middle" font-size="5.5" fill="#1e293b">3</text>
    <text x="81" y="124" text-anchor="middle" font-size="5.5" fill="#1e293b">4</text>
  </g>

  <!-- Bottom group dim 5-... -->
  <g transform="translate(954, 244)">
    <!-- Y axis -->
    <line x1="-4" y1="0" x2="-4" y2="72" stroke="#1e293b" stroke-width="0.8"/>
    <!-- X axis -->
    <line x1="-4" y1="72" x2="92" y2="72" stroke="#1e293b" stroke-width="0.8"/>
    <!-- Y ticks -->
    <line x1="-8" y1="0" x2="-4" y2="0" stroke="#1e293b" stroke-width="0.6"/>
    <text x="-12" y="3" text-anchor="end" font-size="5" fill="#1e293b">0.6</text>
    <line x1="-8" y1="36" x2="-4" y2="36" stroke="#1e293b" stroke-width="0.6"/>
    <text x="-12" y="39" text-anchor="end" font-size="5" fill="#1e293b">0.3</text>
    <line x1="-8" y1="72" x2="-4" y2="72" stroke="#1e293b" stroke-width="0.6"/>
    <text x="-12" y="75" text-anchor="end" font-size="5" fill="#1e293b">0</text>

    <!-- Bars -->
    <rect x="2" y="0" width="14" height="60" rx="2" fill="#27ae60" opacity="0.5"/>
    <rect x="20" y="10" width="14" height="50" rx="2" fill="#3498db" opacity="0.55"/>
    <rect x="38" y="5" width="14" height="55" rx="2" fill="#3498db" opacity="0.45"/>
    <rect x="56" y="15" width="14" height="45" rx="2" fill="#9b59b6" opacity="0.5"/>
    <rect x="74" y="20" width="14" height="40" rx="2" fill="#9b59b6" opacity="0.35"/>

    <!-- X labels -->
    <text x="9" y="84" text-anchor="middle" font-size="5.5" fill="#1e293b">5</text>
    <text x="27" y="84" text-anchor="middle" font-size="5.5" fill="#1e293b">6</text>
    <text x="45" y="84" text-anchor="middle" font-size="5.5" fill="#1e293b">7</text>
    <text x="63" y="84" text-anchor="middle" font-size="5.5" fill="#1e293b">8</text>
    <text x="81" y="84" text-anchor="middle" font-size="5.5" fill="#1e293b">...</text>
  </g>

  <text x="1009" y="375" text-anchor="middle" font-size="8.5" fill="#1e8449" font-weight="700">16-dim</text>
  <text x="1009" y="390" text-anchor="middle" font-size="7" fill="#27ae60">92% variance</text>

  <!-- Output arrow -->
  <rect x="950" y="405" width="118" height="22" rx="4" fill="#27ae60"/>
  <text x="1009" y="420" text-anchor="middle" font-size="8" fill="#fff" font-weight="600">→ Stacking Ensemble</text>

  <text x="1009" y="444" text-anchor="middle" font-size="7" fill="#7dcea0">SHAP ~12.8%</text>

  <!-- Bottom flow summary -->
  <rect x="16" y="462" width="1068" height="20" rx="4" fill="#f8fafc" stroke="#e2e8f0" stroke-width="0.5"/>
  <text x="550" y="476" text-anchor="middle" font-size="8" fill="#94a3b8">crypto_transfer (239K txns)  →  Heterogeneous graph (~26K nodes)  →  3x SAGEConv  →  4-head GAT  →  MLP 128→64  →  PCA 16-d  →  Ensemble features (gnn_emb_0~15)</text>
</svg>